<?xml version="1.0" encoding="UTF-8" standalone="no"?>
<svg
   xmlns:dc="http://purl.org/dc/elements/1.1/"
   xmlns:cc="http://creativecommons.org/ns#"
   xmlns:rdf="http://www.w3.org/1999/02/22-rdf-syntax-ns#"
   xmlns:svg="http://www.w3.org/2000/svg"
   xmlns="http://www.w3.org/2000/svg"
   id="svg10"
   preserveAspectRatio="xMidYMid meet"
   viewBox="0 0 276.000000 183.000000"
   height="183.000000pt"
   width="276.000000pt"
   version="1.0">
  <defs
     id="defs14" />
  <metadata
     id="metadata2">
Created by potrace 1.16, written by Peter Selinger 2001-2019
<rdf:RDF>
  <cc:Work
     rdf:about="">
    <dc:format>image/svg+xml</dc:format>
    <dc:type
       rdf:resource="http://purl.org/dc/dcmitype/StillImage" />
  </cc:Work>
</rdf:RDF>
</metadata>
  <g
     id="g8"
     stroke="none"
     fill="#000000"
     transform="translate(0.000000,183.000000) scale(0.100000,-0.100000)">
    <path
       id="path4"
       d="M2208 1814 c-49 -17 -109 -46 -128 -60 -168 -134 -301 -261 -293 -281 5 -13 2 -13 -21 2 -25 17 -27 17 -47 -1 -11 -10 -19 -27 -17 -39 1 -11 -7 -37 -19 -58 -27 -45 -13 -59 17 -17 21 30 23 30 41 14 10 -9 19 -27 20 -38 1 -18 2 -18 8 4 6 19 3 29 -13 42 -17 14 -19 19 -8 29 9 10 12 10 12 1 0 -7 4 -12 9 -12 5 0 7 8 4 18 -2 10 3 24 11 31 19 16 18 17 21 -34 1 -28 18 -68 56 -133 30 -52 60 -104 66 -115 11 -19 10 -22 -9 -25 -11 -2 -38 4 -58 13 -38 17 -57 49 -76 128 -3 15 -8 26 -10 24 -3 -2 1 -27 8 -56 17 -74 60 -120 123 -132 27 -5 56 -15 63 -23 10 -10 30 -12 72 -9 56 5 58 5 55 -18 -1 -13 0 -16 2 -6 4 17 6 18 23 2 14 -13 13 -6 -6 32 -16 30 -23 57 -19 71 4 17 2 22 -6 16 -13 -8 -8 3 22 46 16 23 19 31 19 46 0 8 98 -63 137 -99 17 -16 44 -57 60 -90 15 -33 55 -117 89 -186 l61 -126 -81 -27 c-44 -15 -81 -26 -81 -25 -1 1 -6 13 -12 27 -11 23 -11 22 -6 -10 7 -44 9 -46 28 -30 9 7 18 11 21 8 3 -3 -10 -15 -28 -27 -22 -15 -26 -20 -11 -16 12 3 25 1 29 -6 4 -8 3 -9 -4 -5 -8 5 -10 1 -5 -10 4 -11 2 -15 -4 -11 -6 4 -34 -21 -63 -55 -28 -34 -58 -63 -66 -64 -8 -1 -33 -18 -54 -38 -22 -20 -48 -36 -58 -36 -10 0 -21 -3 -24 -6 -8 -7 12 -46 36 -69 9 -10 38 -49 63 -86 24 -38 50 -72 55 -75 13 -8 5 7 -26 51 -12 17 -28 42 -35 57 -8 15 -23 37 -34 49 -19 21 -19 21 13 54 28 29 35 32 51 22 11 -7 28 -37 39 -67 46 -126 52 -141 56 -138 2 3 -8 42 -22 89 -18 58 -36 94 -57 117 l-31 32 -37 -36 c-21 -21 -42 -33 -49 -29 -11 7 77 71 92 67 4 -1 33 28 65 64 32 36 59 60 62 53 4 -13 54 63 66 101 7 24 22 40 38 40 14 0 29 -52 17 -64 -7 -7 -10 -2 -11 14 l0 25 -10 -24 c-7 -18 -5 -26 8 -37 17 -12 17 -13 -2 -20 -11 -4 -24 -9 -29 -12 -5 -3 -6 8 -2 24 l7 29 -19 -30 c-11 -16 -18 -32 -16 -34 10 -11 51 -4 62 11 7 10 19 18 26 18 16 0 14 46 -2 77 -17 30 -16 31 23 39 19 3 35 7 35 9 0 1 -21 47 -46 101 -25 54 -55 119 -66 144 -56 122 -91 169 -165 222 -55 39 -72 56 -66 67 4 9 6 34 5 56 -2 49 -42 90 -98 101 -34 6 -40 4 -66 -25 -15 -17 -28 -39 -28 -49 0 -15 -2 -15 -10 -2 -16 25 -11 46 13 58 l22 12 -25 -3 c-17 -1 -26 -9 -28 -24 -4 -27 25 -86 38 -78 6 4 10 0 10 -8 0 -19 30 -44 63 -52 32 -8 35 -27 7 -55 -27 -27 -54 -27 -47 0 4 16 0 20 -19 20 -15 0 -24 6 -24 16 0 10 6 14 15 11 8 -4 17 -2 20 4 4 5 -2 12 -12 16 -10 4 -21 11 -24 16 -4 5 -7 -9 -7 -31 -1 -31 3 -41 19 -45 37 -10 21 -28 -22 -25 -40 3 -43 6 -81 73 -23 40 -43 91 -48 120 -4 28 -10 57 -14 66 -13 30 126 157 244 223 63 35 78 51 20 21 -44 -23 -37 -12 18 27 26 19 70 40 97 48 60 16 81 25 69 32 -5 3 -26 0 -46 -8z" />
    <path
       id="path6"
       d="M157 1232 c-39 -42 -40 -85 -5 -134 10 -14 8 -20 -15 -38 -15 -12 -31 -39 -38 -62 -12 -45 -42 -92 -77 -121 -28 -23 -28 -29 4 -66 30 -36 49 -38 84 -11 33 26 35 26 59 -15 12 -20 36 -42 55 -50 34 -15 46 -41 46 -104 0 -17 11 -38 29 -56 l30 -28 -12 38 c-8 29 -12 33 -17 19 -9 -24 -20 31 -19 90 l0 41 15 -40 c7 -22 20 -51 28 -65 8 -14 13 -42 12 -64 -1 -27 4 -42 16 -50 10 -6 27 -35 39 -66 12 -30 28 -69 35 -87 8 -17 14 -36 14 -42 0 -6 8 -19 18 -29 9 -9 26 -44 36 -77 10 -33 21 -67 24 -75 3 -12 5 -12 9 -2 7 19 -38 155 -58 172 -9 8 -24 37 -33 65 l-16 50 30 -35 29 -35 -30 58 c-17 31 -34 55 -39 52 -11 -7 -53 101 -45 115 4 6 0 19 -8 28 -20 23 -57 98 -57 116 0 8 -6 17 -12 19 -9 4 -9 6 -1 6 6 1 9 9 6 20 -3 10 19 64 51 127 31 59 56 114 56 121 0 21 105 121 135 129 33 8 78 -13 83 -39 2 -9 -3 -30 -11 -47 -14 -28 -14 -30 6 -37 28 -9 248 -7 279 2 l23 8 -25 -22 c-20 -18 -14 -16 37 9 34 16 75 30 90 30 38 0 185 -82 200 -111 20 -38 15 -127 -10 -202 -29 -85 -23 -176 13 -207 13 -11 19 -24 14 -31 -4 -7 -3 -9 3 -6 12 8 63 -36 63 -54 0 -8 -5 -8 -17 2 -11 8 -9 4 4 -11 12 -14 25 -43 29 -65 4 -22 18 -71 31 -109 28 -83 29 -98 6 -94 -12 2 -23 23 -35 70 -9 37 -24 78 -34 92 -15 24 -15 26 1 26 9 0 15 6 12 13 -2 6 -11 12 -19 12 -16 0 -211 168 -257 220 -12 15 -41 60 -63 99 -36 66 -45 59 -11 -9 14 -29 13 -31 -24 -63 -21 -18 -38 -37 -38 -42 0 -5 -4 -12 -9 -17 -5 -5 -6 -2 -1 6 5 9 3 12 -6 9 -8 -3 -13 -12 -11 -19 2 -8 1 -11 -3 -7 -3 3 -31 -3 -62 -14 -41 -14 -67 -17 -97 -12 -23 4 -61 8 -86 9 -97 4 -146 23 -121 48 8 8 17 5 34 -11 49 -46 35 -19 -17 32 -40 40 -61 72 -77 116 -12 33 -23 59 -25 57 -8 -7 24 -97 45 -125 23 -33 27 -73 9 -101 -9 -16 -6 -33 20 -95 18 -41 32 -87 32 -102 0 -27 24 -124 40 -159 29 -64 38 -95 29 -100 -5 -4 -9 -3 -9 2 0 4 -5 0 -11 -9 -16 -28 -39 -22 -40 10 -1 19 -3 22 -6 8 -3 -10 -14 -28 -24 -39 -19 -21 -20 -21 -69 -3 -27 10 -57 16 -67 13 -21 -5 -11 -9 50 -23 21 -5 38 -13 38 -19 0 -31 137 -28 181 5 30 22 65 23 125 4 17 -5 17 -5 -1 10 -18 14 -17 15 10 21 49 11 50 12 21 24 -19 7 -34 8 -47 1 -11 -6 -21 -6 -24 -1 -8 13 19 21 72 21 33 0 43 -3 32 -10 -11 -7 -9 -11 13 -19 54 -21 78 -23 107 -11 16 7 27 16 24 21 -3 5 4 9 16 9 17 0 20 -4 15 -20 -8 -24 4 -25 68 -6 25 7 48 12 51 9 2 -2 18 3 36 12 31 16 58 12 31 -4 -10 -7 -10 -10 -1 -16 7 -4 25 2 41 14 31 23 59 28 59 10 0 -7 11 -9 30 -5 21 4 29 2 24 -5 -5 -8 6 -9 35 -4 33 5 46 3 62 -11 15 -13 22 -15 31 -6 7 7 35 12 63 12 42 0 52 3 52 18 0 9 -5 20 -11 24 -7 5 -7 8 2 8 7 0 10 4 7 10 -4 6 7 10 26 10 31 0 32 0 14 -20 -18 -19 -17 -20 3 -20 12 0 22 -4 22 -9 0 -5 16 -15 35 -21 36 -12 44 -25 23 -33 -7 -3 -1 -6 15 -6 15 -1 27 4 27 9 0 6 7 10 15 10 8 0 15 5 15 10 0 6 11 10 25 10 14 0 25 4 25 9 0 5 12 14 28 19 26 9 27 9 5 16 -13 4 -23 11 -23 16 0 13 -44 20 -52 7 -5 -9 -10 -9 -19 0 -8 8 4 20 47 49 33 20 80 48 106 61 50 25 68 54 47 79 -8 10 -10 37 -6 92 10 116 25 226 39 288 13 55 13 55 45 49 25 -4 37 0 59 20 15 14 35 25 46 25 16 0 13 -10 -23 -81 -24 -49 -37 -84 -31 -88 7 -4 4 -23 -7 -51 -33 -83 -40 -113 -32 -128 5 -10 10 0 14 29 3 24 16 68 28 97 20 49 25 53 73 67 56 17 100 41 56 31 -14 -3 -46 -12 -72 -20 -27 -8 -48 -13 -48 -10 0 3 16 39 36 80 29 61 43 78 75 94 69 36 47 34 -65 -6 -27 -9 -57 -25 -68 -36 -13 -13 -26 -17 -41 -12 -29 9 -31 10 -23 31 4 10 7 20 6 23 -1 3 9 8 22 12 20 5 20 6 3 7 -18 1 -20 7 -17 51 4 45 2 50 -17 52 -12 0 -26 1 -33 2 -7 1 -16 -17 -20 -39 -5 -22 -11 -47 -14 -55 -4 -8 -8 -33 -9 -55 -2 -29 -1 -33 4 -15 4 16 14 25 26 25 24 0 24 -16 0 -135 -9 -47 -23 -134 -30 -195 -7 -60 -16 -117 -20 -126 -4 -11 0 -18 14 -22 12 -3 21 -12 21 -21 0 -26 -228 -166 -269 -166 -19 0 -10 14 58 87 l81 87 -103 53 c-56 30 -166 86 -244 125 -93 46 -145 77 -149 90 -3 11 -4 22 -1 25 3 2 47 -17 99 -44 51 -26 102 -49 113 -49 11 -1 29 -5 40 -10 17 -7 15 -2 -9 30 -27 36 -28 42 -22 110 7 82 15 116 27 116 5 0 6 -42 3 -92 -5 -80 -3 -98 14 -130 16 -31 17 -38 5 -42 -8 -3 -23 -1 -34 4 -10 6 -19 9 -19 6 0 -3 40 -25 90 -50 49 -26 90 -44 90 -41 0 2 -27 18 -60 35 -33 17 -60 33 -60 35 0 3 63 -26 140 -65 77 -38 141 -70 143 -70 2 0 7 44 10 98 3 53 8 108 11 122 6 29 26 160 26 174 1 60 -44 -180 -55 -296 -4 -38 -8 -68 -10 -68 -15 0 -124 58 -119 63 4 4 -5 7 -19 7 -15 0 -27 4 -27 8 0 4 15 8 34 8 19 0 32 -4 30 -8 -3 -4 -2 -8 3 -8 4 0 18 16 30 35 l23 34 -35 -20 c-19 -12 -42 -18 -50 -15 -8 3 -26 1 -40 -4 -35 -13 -53 -3 -76 41 -17 34 -19 58 -18 190 l1 152 -39 39 c-21 22 -63 60 -95 84 l-56 44 -79 -10 c-43 -6 -100 -14 -128 -18 -43 -7 -59 -4 -118 22 l-68 29 -53 -16 c-70 -22 -79 -22 -66 2 17 33 12 46 -27 68 -37 20 -61 18 -83 -8 -14 -17 -95 -69 -107 -69 -20 0 -37 51 -24 72 6 10 11 21 11 25 0 5 -5 0 -11 -10 -10 -17 -12 -17 -37 1 -27 20 -102 34 -102 20 0 -4 -6 -5 -14 -2 -9 3 -13 -1 -13 -11 1 -10 -9 -26 -23 -36 -20 -15 -35 -18 -72 -13 -42 6 -46 9 -38 25 6 10 9 28 9 41 -1 20 -2 21 -6 3 -3 -11 -10 -24 -15 -30 -8 -7 -9 -6 -4 3 9 14 -2 52 -14 52 -17 0 -40 -32 -40 -57 0 -19 -4 -24 -16 -19 -9 4 -22 1 -30 -5 -10 -8 -19 -1 -39 29 -25 38 -26 42 -11 71 9 16 16 32 16 36 0 12 -28 4 -43 -13z m1271 -219 c57 -42 122 -105 138 -135 16 -31 20 -63 4 -38 -11 17 -10 19 -33 -80 -27 -110 -29 -137 -13 -174 l14 -34 -66 31 c-71 33 -79 40 -130 126 -37 62 -34 31 3 -36 l23 -43 -31 17 c-18 10 -35 16 -38 15 -4 0 -4 20 -1 46 2 26 2 44 -1 41 -6 -4 -14 -36 -16 -61 -2 -14 -28 -8 -49 10 -20 17 -20 18 -2 67 l17 50 14 -44 c12 -39 14 -41 21 -21 5 13 6 25 3 28 -3 3 -5 -1 -5 -9 -1 -8 -10 9 -20 36 -24 61 -25 95 -2 43 14 -29 19 -34 29 -23 10 10 9 14 -2 19 -8 2 -22 28 -32 57 -13 36 -28 58 -50 73 -18 12 -33 24 -33 27 0 4 37 12 83 18 91 12 130 18 135 20 2 0 20 -11 40 -26z m-1166 -8 c-2 -15 -9 -22 -16 -18 -7 4 -6 1 1 -8 9 -11 10 -25 3 -50 -6 -18 -10 -50 -10 -70 0 -93 -25 -126 -54 -71 -13 26 -13 29 4 40 10 6 23 32 28 59 6 26 14 57 18 68 13 37 -19 -2 -51 -63 -25 -46 -35 -57 -55 -56 -13 1 -32 -8 -40 -19 -11 -13 -22 -17 -30 -12 -10 6 -9 10 4 17 9 5 16 16 16 25 0 14 -3 14 -20 -2 -11 -10 -23 -15 -27 -11 -4 3 9 20 29 36 27 22 35 35 31 51 -5 19 -4 20 14 9 34 -22 71 -4 105 50 34 54 58 66 50 25z m715 -471 c47 -6 53 -9 58 -34 8 -38 -11 -174 -30 -208 -20 -37 -53 -78 -58 -72 -9 12 -45 108 -52 139 -4 19 -18 57 -31 85 -13 28 -24 58 -24 67 0 20 38 40 65 34 11 -2 43 -7 72 -11z m106 -22 c15 -16 25 -31 21 -34 -3 -4 0 -16 6 -28 7 -14 9 -36 5 -59 l-8 -36 -13 30 -13 30 -1 -46 c0 -37 -8 -56 -40 -102 -22 -31 -43 -69 -46 -85 -5 -24 -11 -29 -35 -30 -36 -1 -37 17 -3 49 34 31 71 106 84 167 8 33 17 51 32 57 12 6 24 17 26 25 4 11 0 10 -16 -3 -21 -19 -21 -19 -27 20 -3 21 -8 46 -10 56 -5 25 7 21 38 -11z m-301 -4 c-6 -7 -24 -21 -40 -30 -27 -16 -31 -16 -42 -3 -11 14 -16 10 -37 -26 -12 -22 -23 -49 -23 -58 0 -15 57 -87 157 -198 l38 -42 10 37 c9 30 8 39 -4 49 -9 6 -19 9 -24 6 -4 -2 -6 -1 -5 4 5 14 -41 53 -57 47 -9 -4 -19 3 -26 20 -7 14 -15 26 -19 26 -3 0 -15 6 -25 14 -16 12 -17 16 -6 30 12 14 11 16 -5 16 -16 0 -15 2 4 23 12 13 19 28 15 33 -4 5 -2 4 6 -3 7 -6 20 -9 29 -6 11 5 10 -3 -8 -34 l-23 -41 29 -35 c34 -43 47 -40 15 4 -26 35 -23 61 10 104 21 26 23 26 36 9 7 -10 13 -26 13 -35 0 -9 12 -41 28 -71 50 -100 55 -116 44 -159 -9 -36 -8 -39 10 -39 17 0 18 -3 9 -14 -10 -12 -7 -15 15 -18 46 -5 41 -28 -6 -28 -23 0 -39 4 -36 9 7 11 -54 41 -83 41 -12 0 -37 -6 -56 -14 -26 -11 -33 -19 -30 -35 3 -17 -1 -21 -26 -21 -36 0 -37 9 -4 40 l25 24 -32 20 c-18 11 -37 26 -41 33 -4 7 -15 13 -22 13 -8 0 -15 7 -15 15 0 7 -7 18 -16 23 -22 12 -24 157 -4 225 l15 49 45 -8 c55 -8 102 -6 132 6 33 13 42 12 30 -2z m658 -5 c0 5 14 0 31 -10 34 -20 75 -95 63 -114 -4 -7 -3 -9 3 -6 14 9 43 -82 39 -124 -5 -59 -17 -71 -73 -73 -57 -2 -106 -28 -97 -51 4 -8 1 -15 -5 -15 -6 0 -11 5 -11 10 0 6 -7 10 -15 10 -20 0 -19 10 2 25 16 12 16 15 0 57 -23 59 -22 61 21 118 34 45 41 49 80 49 23 1 42 5 42 10 0 5 -18 7 -41 4 -51 -7 -59 3 -59 77 0 39 3 51 10 40 5 -8 10 -11 10 -7z m-231 -99 c18 -16 45 -54 59 -84 l25 -55 -25 -45 c-23 -41 -30 -46 -74 -53 -27 -5 -68 -8 -92 -7 -45 1 -79 -19 -61 -37 7 -7 -2 -9 -28 -6 -21 2 -43 5 -50 5 -7 1 -10 5 -7 10 4 5 12 7 18 5 8 -3 23 20 40 59 16 36 44 79 63 97 51 48 64 77 56 134 l-6 48 24 -21 c13 -12 39 -34 58 -50z m489 -25 c42 -23 80 -45 84 -48 4 -4 -26 -40 -67 -81 -68 -67 -97 -84 -61 -35 12 16 10 25 -10 66 -23 46 -43 139 -30 139 3 0 41 -19 84 -41z" />
  </g>
</svg>
