<?xml version="1.0" standalone="no"?>
<!DOCTYPE svg PUBLIC "-//W3C//DTD SVG 20010904//EN"
 "http://www.w3.org/TR/2001/REC-SVG-20010904/DTD/svg10.dtd">
<svg version="1.0" xmlns="http://www.w3.org/2000/svg"
 width="512.000000pt" height="512.000000pt" viewBox="0 0 512.000000 512.000000"
 preserveAspectRatio="xMidYMid meet">

<g transform="translate(0.000000,512.000000) scale(0.100000,-0.100000)"
fill="#000000" stroke="none">
<path d="M1406 3737 c3 -10 9 -15 12 -12 3 3 0 11 -7 18 -10 9 -11 8 -5 -6z"/>
<path d="M4952 3370 c0 -14 2 -19 5 -12 2 6 2 18 0 25 -3 6 -5 1 -5 -13z"/>
<path d="M4777 3329 c-20 -61 -22 -83 -5 -73 8 5 9 2 3 -12 -15 -35 -19 -77
-6 -70 16 10 14 -10 -4 -28 -8 -8 -15 -25 -15 -37 0 -21 1 -21 18 -6 27 25 36
21 12 -5 -20 -21 -24 -36 -21 -70 1 -9 -5 -32 -13 -52 -12 -30 -12 -34 0 -29
15 5 18 -5 8 -31 -3 -9 -10 -14 -14 -11 -5 3 -8 -4 -7 -15 1 -13 6 -19 15 -15
7 3 16 5 18 5 2 0 4 7 4 15 0 8 3 15 8 15 4 0 5 -19 3 -42 -3 -24 -6 -35 -9
-25 -5 26 -22 21 -22 -7 0 -14 -4 -28 -10 -31 -5 -3 -10 -11 -10 -17 0 -6 8
-1 19 10 10 12 21 22 24 22 3 0 3 -26 0 -57 -3 -32 -3 -55 0 -52 16 14 60 337
55 404 -1 17 2 59 6 94 6 46 5 62 -3 57 -7 -5 -11 2 -11 16 0 19 -2 20 -10 8
-8 -11 -10 -2 -8 32 2 65 -6 68 -25 7z m33 -119 c-8 -34 -8 -33 -9 15 0 34 3
45 9 35 4 -9 5 -31 0 -50z m-3 -62 c-3 -8 -6 -5 -6 6 -1 11 2 17 5 13 3 -3 4
-12 1 -19z m-10 -80 c-3 -7 -5 -2 -5 12 0 14 2 19 5 13 2 -7 2 -19 0 -25z m-8
-78 c-2 -58 -11 -76 -23 -45 -3 8 -1 15 4 15 6 0 10 20 10 45 0 25 2 45 5 45
3 0 5 -27 4 -60z"/>
<path d="M4923 3225 c-12 -60 -25 -137 -29 -170 -4 -33 -13 -69 -20 -80 -6
-11 -15 -31 -19 -43 l-7 -24 20 20 c15 15 25 49 37 124 9 57 23 130 31 163 9
33 14 74 12 90 -2 20 -11 -9 -25 -80z"/>
<path d="M4862 3220 c0 -14 2 -19 5 -12 2 6 2 18 0 25 -3 6 -5 1 -5 -13z"/>
<path d="M4852 3120 c0 -14 2 -19 5 -12 2 6 2 18 0 25 -3 6 -5 1 -5 -13z"/>
<path d="M2096 3061 c-17 -11 -34 -17 -40 -14 -6 4 0 -11 13 -33 l23 -39 -26
24 -26 24 0 -34 c0 -19 6 -41 13 -48 10 -11 8 -13 -10 -8 -20 4 -22 2 -16 -27
3 -17 10 -37 16 -44 5 -7 8 -15 5 -17 -10 -10 -37 7 -44 27 -3 11 -8 18 -10
15 -2 -2 5 -24 16 -48 23 -51 27 -87 5 -49 -21 36 -18 4 4 -58 11 -29 15 -52
9 -52 -5 0 -12 9 -15 20 -3 11 -9 20 -14 20 -12 0 -11 -2 5 -41 29 -73 30 -79
2 -79 -15 0 -31 8 -38 20 -7 11 -16 20 -21 20 -4 0 8 -24 28 -52 19 -29 35
-56 35 -60 0 -16 -30 -7 -42 12 -7 11 -16 20 -20 20 -4 0 8 -25 27 -55 33 -50
34 -55 15 -55 -25 0 -25 -7 1 -49 11 -18 18 -36 15 -39 -9 -8 -46 29 -46 45 0
8 -5 11 -10 8 -7 -4 -7 -11 -2 -18 12 -15 62 -106 62 -112 0 -12 -21 -3 -41
18 -17 18 -15 10 11 -42 35 -70 32 -91 -6 -46 -21 26 -20 20 11 -42 38 -79 32
-98 -11 -33 -41 62 -38 42 7 -43 39 -75 38 -97 -3 -60 -10 9 -18 11 -18 5 0
-6 5 -14 10 -17 15 -9 52 -86 46 -93 -8 -8 -32 24 -58 76 -39 80 -29 34 12
-54 22 -48 38 -93 36 -101 -3 -7 -2 -12 2 -10 11 3 70 -66 66 -78 -1 -5 -5
-27 -9 -49 -6 -35 -7 -37 -20 -20 -11 15 -14 16 -15 4 0 -12 -2 -13 -9 -1 -5
7 -14 10 -21 6 -8 -5 -11 2 -10 26 3 50 0 57 -12 29 -10 -23 -12 -19 -20 40
-5 36 -13 67 -18 68 -6 2 -10 11 -10 21 0 9 -4 21 -10 27 -5 5 -11 30 -12 56
-2 36 -6 44 -15 36 -10 -8 -13 -3 -13 20 0 16 -7 47 -17 68 -9 22 -20 60 -24
86 -8 49 -48 106 -67 94 -17 -10 -20 -55 -6 -114 7 -31 11 -73 8 -92 -3 -19
-1 -62 5 -95 14 -76 17 -207 6 -225 -6 -10 -12 -3 -21 26 -6 21 -12 33 -13 27
-1 -7 -7 -13 -15 -13 -7 0 -19 -7 -27 -16 -7 -9 -22 -14 -37 -11 -21 4 -23 1
-22 -27 3 -48 1 -53 -16 -31 -15 19 -16 18 -10 -18 4 -21 10 -45 13 -53 3 -8
0 -14 -6 -14 -6 0 -11 5 -11 10 0 6 -9 21 -21 33 l-21 22 17 -42 c9 -23 15
-48 12 -55 -4 -9 -6 -7 -6 4 -1 11 -7 15 -19 11 -15 -3 -22 5 -35 39 -22 59
-32 108 -18 88 14 -20 13 -4 -3 40 l-13 35 -5 -27 c-3 -16 -1 -25 5 -21 5 3 6
-3 2 -16 -3 -12 1 -46 10 -77 9 -31 14 -58 12 -60 -4 -5 -15 23 -63 164 -25
72 -31 80 -41 65 -7 -9 -13 -22 -13 -29 0 -7 -9 -34 -21 -60 -15 -36 -22 -45
-29 -34 -6 10 -12 5 -23 -21 -17 -39 -19 -35 -36 61 -12 71 -15 83 -28 120 -7
22 -8 20 -14 -20 -5 -41 -6 -39 -7 22 -1 40 -9 82 -19 103 -20 42 -31 45 -26
8 2 -16 0 -46 -5 -68 l-10 -40 -1 43 c-1 35 -4 42 -21 42 -25 0 -26 17 -3 42
11 13 16 32 14 59 -2 30 1 39 13 39 9 0 16 7 16 15 0 8 -6 14 -12 12 -9 -1
-15 16 -18 53 -4 43 -8 54 -20 51 -8 -2 -28 -6 -45 -9 -16 -2 -35 -11 -42 -19
-7 -9 -19 -13 -28 -10 -11 5 -15 0 -15 -17 0 -12 -3 -26 -7 -29 -11 -12 -33
15 -34 42 0 23 -3 20 -20 -18 -10 -24 -26 -69 -33 -100 -8 -31 -26 -94 -40
-141 -14 -47 -26 -93 -26 -102 0 -27 -20 -22 -20 5 -1 21 -1 21 -23 -6 l-23
-28 -11 23 c-24 48 -51 165 -48 205 2 15 6 46 10 67 6 27 5 37 -2 33 -6 -4
-13 0 -17 8 -3 8 -12 12 -21 9 -10 -4 -15 -2 -13 7 2 8 -3 13 -11 11 -12 -3
-12 0 -2 12 8 10 10 27 6 47 -5 21 -10 28 -15 19 -5 -7 -6 -19 -3 -26 6 -16
-35 -54 -59 -54 -19 0 -48 47 -48 80 0 13 -4 18 -11 14 -6 -4 -8 -20 -5 -40 4
-18 4 -44 0 -58 -5 -21 -9 -24 -25 -16 -10 6 -18 14 -17 18 3 14 -14 97 -24
112 -7 11 -8 9 -5 -10 3 -14 2 -34 -3 -45 -7 -18 -9 -16 -23 15 l-15 35 -1
-32 c-1 -17 4 -44 9 -58 8 -20 7 -26 -2 -23 -7 3 -19 33 -27 67 -16 69 -33 75
-42 15 -3 -21 -7 -33 -8 -26 0 6 -6 12 -12 12 -8 0 -10 -15 -6 -47 6 -47 6
-47 -8 -18 l-13 30 -1 -30 c0 -16 6 -51 14 -77 12 -43 12 -48 -1 -48 -11 0
-14 -8 -11 -27 2 -16 2 -22 0 -15 -3 6 -9 12 -14 12 -5 0 -9 7 -9 16 0 8 -10
38 -21 65 -16 36 -26 48 -38 44 -18 -5 -71 69 -71 100 0 16 -2 16 -25 1 -26
-17 -34 -9 -12 13 10 10 9 11 -6 5 -13 -5 -16 -2 -11 9 3 9 2 23 -3 31 -7 13
-12 9 -27 -19 -28 -51 -39 -43 -16 11 23 52 24 64 10 64 -5 0 -10 -7 -10 -14
0 -18 -60 -76 -77 -76 -10 0 -13 -232 -13 -1125 l0 -1125 2560 0 2560 0 0 675
0 676 -30 -31 c-16 -16 -27 -36 -24 -44 6 -15 -30 -41 -45 -32 -5 3 -9 74 -10
158 -1 84 -6 157 -11 162 -6 6 -10 6 -10 1 -1 -6 -2 -60 -4 -120 -1 -61 -7
-119 -13 -129 -9 -16 -12 -15 -41 14 -18 17 -32 38 -32 46 0 8 -9 24 -20 36
-11 12 -20 27 -20 34 0 6 -7 14 -15 18 -8 3 -15 12 -15 21 0 8 -4 15 -8 15
-14 0 -52 -58 -52 -79 0 -15 -6 -19 -27 -18 -27 2 -28 4 -28 60 0 31 -3 57 -7
57 -5 0 -8 -8 -8 -17 0 -12 -5 -9 -15 11 -8 15 -15 42 -15 59 0 17 -2 28 -5
25 -4 -4 -7 -25 -14 -115 -1 -7 -7 -10 -13 -8 -9 4 -13 36 -13 113 -1 186 -6
253 -20 258 -7 3 -15 18 -19 35 -5 26 -26 42 -26 19 0 -6 -9 -6 -25 0 -27 10
-30 8 -16 -18 4 -9 11 -34 14 -54 7 -46 -12 -43 -39 7 -10 19 -20 33 -22 31
-2 -2 4 -18 12 -35 9 -16 16 -40 16 -53 0 -13 9 -29 20 -36 11 -7 20 -17 20
-23 0 -6 -18 5 -40 25 -37 33 -70 52 -42 24 7 -7 12 -18 12 -26 0 -7 -18 8
-40 33 -22 25 -40 53 -40 62 0 9 -6 13 -14 10 -10 -4 -12 0 -8 15 3 14 1 19
-6 14 -7 -4 -12 -17 -12 -28 0 -21 0 -21 -20 2 -11 12 -18 26 -15 30 2 4 -4
15 -15 25 -13 11 -20 14 -20 6 0 -7 -4 -10 -9 -7 -14 9 -21 -34 -9 -58 10 -23
6 -37 -43 -131 -18 -34 -34 -103 -55 -244 -3 -18 -17 -45 -32 -60 -15 -14 -26
-30 -24 -34 1 -5 -2 -6 -6 -3 -12 7 -44 -28 -35 -37 3 -4 -1 -7 -11 -7 -11 0
-16 7 -15 23 1 12 1 31 0 42 -1 15 -3 17 -10 6 -7 -11 -10 -9 -16 8 -3 12 -11
18 -17 15 -8 -5 -9 -1 -4 12 4 10 4 15 0 12 -8 -8 -44 34 -44 51 0 6 5 11 10
11 6 0 10 15 10 33 0 19 3 37 6 40 4 4 8 26 10 49 2 33 1 37 -5 18 -5 -14 -18
-43 -31 -65 -25 -44 -33 -84 -21 -100 13 -16 22 -65 12 -65 -5 0 -12 11 -15
25 -4 14 -13 25 -21 25 -8 0 -15 5 -15 10 0 6 5 10 10 10 6 0 10 5 10 11 0 7
-10 9 -26 6 -18 -3 -24 -1 -20 8 3 8 -1 16 -9 18 -13 6 -29 -39 -40 -118 -3
-22 -11 -47 -16 -55 -8 -11 -9 -4 -5 25 4 22 9 68 13 103 3 34 9 65 13 67 4 2
24 -5 46 -15 47 -25 44 -25 44 4 0 13 5 26 11 28 6 2 13 32 15 67 3 54 1 61
-11 51 -13 -10 -15 -8 -15 13 0 14 4 29 10 32 19 12 11 45 -10 45 -23 0 -27
18 -5 26 19 8 20 44 1 44 -19 0 -28 27 -10 34 16 6 19 42 4 51 -6 4 -8 21 -4
41 6 30 4 34 -16 34 -13 0 -24 -8 -27 -20 -3 -11 -10 -20 -15 -20 -6 0 -7 7
-2 18 9 21 18 109 10 101 -3 -3 -6 -19 -8 -37 -1 -18 -6 -32 -10 -32 -8 0 -1
160 8 188 2 7 -1 22 -6 33 -8 15 -7 21 4 25 11 4 14 14 10 29 -3 13 -1 32 5
43 8 16 7 21 -4 26 -9 3 -15 19 -15 41 0 24 -4 35 -15 35 -15 0 -19 -18 -15
-72 1 -14 -3 -29 -9 -33 -7 -4 -11 6 -11 28 0 19 -7 40 -15 47 -13 11 -15 8
-15 -13 0 -14 5 -29 10 -32 15 -9 12 -25 -5 -25 -22 0 -18 -28 5 -42 11 -7 20
-21 20 -32 0 -18 -1 -19 -20 -1 -19 18 -20 17 -20 -3 0 -11 9 -27 21 -36 17
-11 20 -20 14 -45 -4 -20 -3 -31 4 -31 6 0 11 -7 11 -15 0 -8 -4 -15 -10 -15
-18 0 -10 -35 10 -48 12 -7 18 -17 14 -23 -4 -8 -10 -7 -17 0 -18 18 -27 13
-27 -14 0 -17 9 -29 30 -40 17 -9 30 -20 30 -25 0 -16 -19 -11 -40 10 -11 11
-20 17 -20 13 0 -4 -9 3 -20 15 -12 12 -23 22 -26 22 -9 0 16 -38 27 -42 6 -2
12 -28 13 -58 1 -52 3 -56 38 -79 21 -13 35 -28 31 -34 -3 -5 -8 -6 -12 0 -3
5 -13 12 -21 16 -8 4 -26 15 -39 24 -24 17 -24 17 -14 -1 12 -21 6 -56 -9 -56
-6 0 -8 7 -5 14 4 11 1 13 -11 9 -14 -6 -15 -4 -5 9 7 8 10 18 6 21 -3 4 -5
37 -4 74 3 80 -6 81 -14 3 -4 -30 -8 -68 -10 -85 -1 -16 -7 -115 -11 -220 -5
-104 -10 -180 -12 -167 -7 42 -22 22 -21 -28 1 -35 6 -50 15 -50 8 0 14 -4 14
-10 0 -13 -27 -13 -32 1 -2 5 -11 7 -21 4 -9 -4 -14 -12 -11 -19 3 -6 -1 -3
-10 8 -14 17 -16 17 -31 2 -21 -21 -55 -21 -55 0 0 10 -6 13 -18 10 -16 -5
-18 -2 -14 23 3 24 1 30 -14 29 -11 0 -26 2 -35 6 -24 10 -49 -44 -42 -89 4
-23 2 -35 -6 -35 -9 0 -9 -5 -1 -21 9 -16 8 -24 -4 -38 -9 -10 -16 -23 -16
-30 0 -7 -5 -9 -11 -5 -6 3 -15 0 -20 -7 -6 -10 -9 -8 -9 9 0 14 -4 21 -11 16
-6 -3 -9 -15 -6 -25 3 -10 -1 -23 -9 -30 -11 -9 -14 -9 -14 1 0 7 -7 10 -16 6
-12 -5 -15 -2 -10 10 3 8 6 20 6 25 0 5 5 9 11 9 6 0 8 -7 4 -17 -4 -12 -3
-14 3 -8 5 6 12 23 16 38 6 25 5 28 -14 22 -17 -5 -20 -2 -20 19 0 14 5 26 10
26 6 0 10 9 10 20 0 11 -6 20 -14 20 -11 0 -12 7 -7 28 5 15 13 26 20 24 20
-4 12 15 -8 21 -18 4 -19 8 -8 42 8 29 8 38 -2 44 -10 6 -10 10 -2 16 7 3 9
15 6 26 -4 11 -2 19 4 19 6 0 11 5 11 10 0 6 -7 10 -15 10 -12 0 -14 7 -9 28
8 33 8 32 -1 60 -4 12 -12 22 -17 22 -6 0 -7 16 -3 40 6 37 4 44 -22 67 -15
15 -29 25 -31 24 -2 -1 -7 1 -10 5 -4 4 -1 4 6 0 17 -10 15 16 -4 40 -14 18
-15 16 -11 -29 4 -40 2 -46 -10 -36 -12 10 -14 6 -14 -27 -2 -104 -4 -134 -12
-134 -5 0 -7 -20 -6 -44 2 -24 0 -42 -5 -39 -4 3 -6 -21 -3 -53 5 -54 4 -57
-10 -39 -14 19 -15 17 -9 -20 5 -29 4 -36 -3 -25 -10 13 -11 13 -12 0 0 -8 -5
1 -11 20 -9 31 -11 33 -19 15 -6 -14 -8 -6 -4 25 5 40 4 43 -8 26 -13 -18 -14
-18 -20 3 -3 11 -11 21 -19 21 -13 0 -58 -75 -58 -97 0 -7 -5 -13 -11 -13 -6
0 -8 11 -5 28 17 86 17 98 2 111 -9 7 -23 10 -32 7 -13 -5 -15 -2 -11 15 3 12
2 18 -2 13 -17 -19 -81 -258 -81 -302 0 -39 -11 -72 -23 -72 -6 0 -8 23 -4 65
5 52 3 65 -8 65 -7 0 -16 -6 -18 -12 -9 -21 -28 14 -21 36 10 30 -16 8 -32
-28 -14 -29 -14 -25 -8 52 3 45 4 82 1 82 -3 0 -13 -26 -22 -57 -9 -32 -19
-64 -21 -71 -2 -7 -8 -11 -12 -8 -5 3 -3 35 4 72 12 67 6 114 -15 114 -12 0
-28 -56 -35 -130 -3 -30 -16 -118 -28 -196 l-22 -141 -35 0 c-46 0 -51 9 -34
60 8 22 13 55 13 71 -4 65 0 101 9 87 7 -11 9 -11 13 0 3 8 9 11 13 7 7 -7 0
-52 -23 -138 -5 -20 -5 -44 -1 -55 7 -19 8 -19 8 2 1 12 5 23 11 25 5 2 12 46
15 98 4 52 15 133 25 180 10 47 20 112 22 145 3 57 2 60 -19 57 -14 -2 -26 4
-33 18 -7 13 -18 19 -26 16 -8 -3 -14 1 -14 10 0 29 -25 8 -31 -27 -6 -30 -7
-27 -9 21 -2 30 -5 45 -7 33 -2 -13 -8 -23 -13 -23 -5 0 -9 100 -9 223 -1 235
-9 367 -22 367 -4 0 -9 12 -11 28 l-4 27 -9 -29 c-5 -20 -4 -31 3 -34 7 -2 8
-12 3 -25 -4 -12 -5 -87 -2 -165 3 -79 2 -146 -2 -149 -4 -3 -4 -10 1 -16 5
-7 12 -64 16 -127 3 -64 9 -145 12 -180 4 -36 4 -63 1 -60 -3 3 -11 48 -17
100 -6 52 -13 115 -17 140 l-7 45 -7 -35 c-5 -27 -7 -16 -9 45 -1 44 -5 94 -9
110 -7 30 -7 30 -15 6 -5 -13 -6 -76 -3 -140 3 -64 3 -106 0 -93 -8 39 -23 23
-23 -25 0 -27 -4 -43 -8 -38 -11 15 -32 17 -33 2 0 -6 -6 1 -13 17 -10 21 -10
38 -3 62 8 26 6 40 -11 74 -20 40 -19 72 2 99 6 7 11 30 12 50 1 20 5 47 8 61
l7 25 -17 -22 c-9 -13 -24 -23 -33 -23 -11 0 -12 3 -4 8 11 7 43 86 43 107 0
5 -7 -1 -16 -13 -29 -42 -31 -12 -3 48 33 68 39 101 9 53 -34 -57 -42 -36 -10
28 17 33 29 66 26 72 -2 7 -5 5 -5 -4 -1 -19 -28 -45 -37 -36 -4 3 7 33 24 66
17 34 26 61 21 61 -5 0 -9 -6 -9 -14 0 -16 -28 -41 -37 -33 -3 4 -2 12 4 19 5
7 15 26 21 41 11 26 11 28 -8 22 -26 -8 -25 -4 10 53 17 27 30 55 29 63 0 8
-4 4 -9 -9 -10 -23 -36 -39 -47 -29 -3 3 9 27 26 53 18 25 29 49 26 52 -3 3
-5 0 -5 -6 0 -13 -69 -56 -78 -48 -3 4 4 9 16 13 12 3 19 9 16 14 -2 5 3 20
13 35 17 26 17 27 -5 20 -20 -7 -22 -5 -17 28 2 20 0 36 -4 36 -9 0 1 59 13
79 4 6 2 11 -3 11 -6 0 -11 5 -11 10 0 6 6 10 14 10 14 0 27 22 25 43 0 7 -4
2 -9 -10 -5 -13 -16 -23 -25 -23 -17 0 -20 16 -5 25 13 8 13 55 0 55 -5 0 -7
7 -4 15 4 8 10 13 14 10 5 -3 11 -1 15 5 3 5 1 10 -4 10 -6 0 -11 7 -11 15 0
9 -7 18 -16 22 -11 4 -14 13 -10 29 4 13 3 24 -2 24 -4 0 -8 9 -9 21 -2 21
-20 49 -32 49 -3 0 -19 -9 -35 -19z m91 -133 c-3 -8 -6 -5 -6 6 -1 11 2 17 5
13 3 -3 4 -12 1 -19z m3 -472 c0 -2 -7 -7 -16 -10 -8 -3 -12 -2 -9 4 6 10 25
14 25 6z m-2073 -248 c-3 -8 -6 -5 -6 6 -1 11 2 17 5 13 3 -3 4 -12 1 -19z
m390 -20 c-3 -8 -6 -5 -6 6 -1 11 2 17 5 13 3 -3 4 -12 1 -19z m-447 2 c0 -5
-5 -10 -11 -10 -5 0 -7 5 -4 10 3 6 8 10 11 10 2 0 4 -4 4 -10z m74 -14 c-6
-15 -24 -23 -24 -11 0 8 24 34 28 30 1 -1 0 -10 -4 -19z m83 -78 c7 -17 4 -32
-15 -67 -28 -55 -123 -201 -129 -201 -3 0 4 15 15 33 35 55 107 181 114 200 6
13 2 17 -12 17 -18 0 -19 3 -8 20 16 26 23 25 35 -2z m503 12 c0 -5 -4 -10
-10 -10 -5 0 -10 5 -10 10 0 6 5 10 10 10 6 0 10 -4 10 -10z m-221 -29 c17
-17 18 -32 2 -31 -16 1 -42 30 -36 39 9 15 12 14 34 -8z m-333 -42 c-14 -17
-23 -36 -20 -41 4 -6 2 -8 -4 -4 -6 3 -13 -2 -17 -13 -3 -11 -13 -25 -21 -32
-12 -10 19 58 53 114 2 4 11 7 19 7 12 0 9 -8 -10 -31z m816 -9 c-5 -32 -19
-40 -28 -16 -7 17 14 59 25 52 4 -3 6 -19 3 -36z m-291 -73 c-10 -9 -11 -8 -5
6 3 10 9 15 12 12 3 -3 0 -11 -7 -18z m-324 -39 c-3 -8 -6 -5 -6 6 -1 11 2 17
5 13 3 -3 4 -12 1 -19z m363 -20 c0 -10 -4 -18 -9 -18 -16 0 -23 19 -16 41 6
17 9 19 16 8 5 -8 9 -22 9 -31z m449 23 c12 -8 12 -12 2 -25 -18 -22 -41 -20
-41 2 0 31 14 39 39 23z m2612 -2 c15 -7 24 -7 35 2 17 14 19 -2 2 -19 -18
-18 -42 -15 -56 8 -14 23 -10 25 19 9z m-2854 -53 c0 -38 -2 -42 -15 -30 -12
12 -12 20 -2 44 7 17 13 30 15 30 1 0 2 -20 2 -44z m-187 -37 c0 -11 -4 -17
-10 -14 -5 3 -10 13 -10 21 0 8 5 14 10 14 6 0 10 -9 10 -21z m150 -54 c0 -8
-7 -15 -16 -15 -14 0 -14 3 -4 15 7 8 14 15 16 15 2 0 4 -7 4 -15z m2310 -41
c0 -8 -2 -14 -5 -14 -6 0 -35 56 -35 67 1 14 40 -39 40 -53z m530 42 c0 -7 7
-19 15 -26 16 -13 21 -35 7 -26 -12 7 -36 -156 -29 -193 4 -20 3 -30 -3 -26
-6 3 -10 -4 -11 -17 0 -13 -5 -32 -10 -43 -10 -21 -3 294 7 328 6 20 24 23 24
3z m700 -33 c0 -7 -9 -2 -24 13 -9 8 -16 20 -16 26 0 6 9 1 20 -12 11 -13 20
-25 20 -27z m-3730 22 c-7 -9 -15 -13 -17 -11 -7 7 7 26 19 26 6 0 6 -6 -2
-15z m65 -40 l6 -40 -16 34 c-17 37 -21 71 -6 56 5 -6 12 -28 16 -50z m3040
42 c10 -8 14 -16 9 -19 -5 -3 -18 3 -28 13 -22 22 -9 26 19 6z m-2381 -84 c4
-21 9 -46 12 -55 4 -12 0 -15 -15 -11 -21 5 -34 51 -25 89 8 32 20 22 28 -23z
m3116 -34 c0 -14 -6 -11 -39 20 -42 39 -39 48 4 15 19 -14 35 -30 35 -35z
m-3810 2 c0 -6 -4 -11 -10 -11 -5 0 -10 4 -10 9 0 5 -3 18 -7 28 -6 17 -6 17
10 1 9 -9 17 -21 17 -27z m2456 2 c-4 -4 -11 -1 -16 7 -16 25 -11 35 7 17 9
-9 13 -20 9 -24z m1275 -36 c9 -36 5 -68 -5 -36 -35 116 -35 114 -20 94 8 -11
19 -37 25 -58z m7 42 c-3 -8 -7 -3 -11 10 -4 17 -3 21 5 13 5 -5 8 -16 6 -23z
m-2053 -18 c3 -5 1 -12 -5 -16 -5 -3 -10 1 -10 9 0 18 6 21 15 7z m2135 -69
c0 -7 -15 -1 -35 15 -19 15 -35 31 -35 35 0 13 69 -37 70 -50z m-690 22 c0 -2
-9 0 -20 6 -11 6 -20 13 -20 16 0 2 9 0 20 -6 11 -6 20 -13 20 -16z m-682 -19
c9 -18 8 -23 -1 -19 -7 2 -17 15 -23 28 -9 19 -9 23 1 20 7 -3 17 -16 23 -29z
m-1785 -18 c-9 -16 -26 12 -18 30 7 17 8 17 15 -2 4 -11 5 -24 3 -28z m56 -2
c0 -5 -4 -3 -9 5 -8 12 -10 10 -10 -9 0 -13 -3 -22 -6 -18 -3 3 -3 21 1 39 7
29 9 30 16 13 4 -11 8 -24 8 -30z m551 10 c0 -19 -2 -35 -4 -35 -2 0 -6 16 -8
35 -2 19 0 35 4 35 4 0 8 -16 8 -35z m-410 -6 c0 -6 -4 -7 -10 -4 -5 3 -10 11
-10 16 0 6 5 7 10 4 6 -3 10 -11 10 -16z m2880 -9 c0 -5 -2 -10 -4 -10 -3 0
-8 5 -11 10 -3 6 -1 10 4 10 6 0 11 -4 11 -10z m-2840 -10 c0 -5 -2 -10 -4
-10 -3 0 -8 5 -11 10 -3 6 -1 10 4 10 6 0 11 -4 11 -10z m1540 -52 c0 -6 -7
-5 -15 2 -8 7 -15 17 -15 22 0 6 7 5 15 -2 8 -7 15 -17 15 -22z m1387 17 c9
-25 -2 -27 -22 -5 -17 18 -17 20 -1 20 9 0 19 -7 23 -15z m-818 -45 c9 -26 8
-30 -8 -30 -14 0 -17 6 -13 30 2 17 6 30 7 30 2 0 8 -13 14 -30z m948 -27 c-3
-10 -5 -2 -5 17 0 19 2 27 5 18 2 -10 2 -26 0 -35z m-2238 -65 c1 -16 -3 -28
-9 -28 -6 0 -10 28 -9 68 1 62 2 64 10 27 4 -22 8 -52 8 -67z m171 82 c0 -5
-5 -10 -11 -10 -5 0 -7 5 -4 10 3 6 8 10 11 10 2 0 4 -4 4 -10z m1340 0 c0 -5
-5 -10 -11 -10 -5 0 -7 5 -4 10 3 6 8 10 11 10 2 0 4 -4 4 -10z m678 -60 c0
-39 -4 -68 -9 -65 -4 3 -8 20 -8 38 0 18 -1 39 -2 47 -4 27 1 50 10 50 5 0 9
-32 9 -70z m-3228 39 c0 -5 -4 -9 -10 -9 -5 0 -10 7 -10 16 0 8 5 12 10 9 6
-3 10 -10 10 -16z m3160 -16 c0 -9 -1 -14 -3 -12 -1 2 -11 15 -22 28 l-20 24
23 -12 c12 -6 22 -19 22 -28z m-2173 5 c-3 -8 -6 -5 -6 6 -1 11 2 17 5 13 3
-3 4 -12 1 -19z m753 -8 c0 -5 -2 -10 -4 -10 -3 0 -8 5 -11 10 -3 6 -1 10 4
10 6 0 11 -4 11 -10z m-100 -10 c0 -5 -4 -10 -10 -10 -5 0 -10 5 -10 10 0 6 5
10 10 10 6 0 10 -4 10 -10z m-155 -27 c-10 -42 -25 -52 -25 -17 0 32 6 44 23
44 5 0 6 -12 2 -27z m-1475 -14 c0 -5 -4 -9 -10 -9 -5 0 -10 7 -10 16 0 8 5
12 10 9 6 -3 10 -10 10 -16z m430 11 c0 -5 -2 -10 -4 -10 -3 0 -8 5 -11 10 -3
6 -1 10 4 10 6 0 11 -4 11 -10z m1897 -42 c-3 -7 -5 -2 -5 12 0 14 2 19 5 13
2 -7 2 -19 0 -25z m343 22 c0 -5 -4 -10 -10 -10 -5 0 -10 5 -10 10 0 6 5 10
10 10 6 0 10 -4 10 -10z m485 -1 c11 -17 -1 -21 -15 -4 -8 9 -8 15 -2 15 6 0
14 -5 17 -11z m-967 -19 c-7 -10 -14 -17 -17 -15 -4 4 18 35 25 35 2 0 -1 -9
-8 -20z m49 -30 c-4 -29 -14 -59 -26 -71 -14 -15 -22 -42 -27 -90 -4 -38 -11
-69 -15 -69 -5 0 -9 9 -9 19 0 11 -4 23 -10 26 -5 3 -10 11 -10 17 0 7 4 7 13
0 9 -8 12 7 12 68 0 68 3 82 23 102 12 14 22 30 22 36 0 7 7 12 16 12 14 0 16
-8 11 -50z m-2797 1 c0 -22 -15 -35 -29 -27 -13 9 -1 46 15 46 8 0 14 -9 14
-19z m1860 -12 c0 -16 -4 -28 -9 -25 -8 5 -3 56 5 56 2 0 4 -14 4 -31z m360
27 c0 -3 -4 -8 -10 -11 -5 -3 -10 -1 -10 4 0 6 5 11 10 11 6 0 10 -2 10 -4z
m667 -28 c-3 -8 -6 -5 -6 6 -1 11 2 17 5 13 3 -3 4 -12 1 -19z m143 13 c0 -6
-4 -13 -10 -16 -5 -3 -10 1 -10 9 0 9 5 16 10 16 6 0 10 -4 10 -9z m705 -31
c10 -11 14 -20 8 -20 -5 0 -18 9 -28 20 -10 11 -14 20 -8 20 5 0 18 -9 28 -20z
m-2146 -53 c12 -12 1 -55 -15 -61 -15 -6 -20 9 -5 18 4 3 7 29 5 58 -1 29 0
40 3 23 2 -16 8 -34 12 -38z m2188 41 c-3 -8 -6 -5 -6 6 -1 11 2 17 5 13 3 -3
4 -12 1 -19z m-1550 -10 c-3 -8 -6 -5 -6 6 -1 11 2 17 5 13 3 -3 4 -12 1 -19z
m-1077 -13 c10 -12 10 -15 -4 -15 -9 0 -16 7 -16 15 0 8 2 15 4 15 2 0 9 -7
16 -15z m2630 -30 c0 -14 -4 -25 -9 -25 -4 0 -6 11 -3 25 2 14 6 25 8 25 2 0
4 -11 4 -25z m-990 -4 c0 -10 -7 -22 -16 -25 -8 -3 -13 -2 -11 2 2 4 7 15 10
25 8 23 17 22 17 -2z m1380 -1 c0 -13 -5 -18 -15 -14 -16 7 -19 17 -8 27 12
13 23 7 23 -13z m-13 -52 c-3 -8 -6 -5 -6 6 -1 11 2 17 5 13 3 -3 4 -12 1 -19z
m-1937 2 c0 -5 -2 -10 -4 -10 -3 0 -8 5 -11 10 -3 6 -1 10 4 10 6 0 11 -4 11
-10z m-2600 -50 c0 -5 -4 -10 -10 -10 -5 0 -10 5 -10 10 0 6 5 10 10 10 6 0
10 -4 10 -10z m3120 -95 c0 -8 -4 -17 -10 -20 -6 -4 -10 5 -10 20 0 15 4 24
10 20 6 -3 10 -12 10 -20z m-2585 -34 c-8 -8 -35 22 -35 38 0 12 5 10 20 -9
10 -14 17 -27 15 -29z m2585 -38 c0 -5 -5 -15 -10 -23 -8 -12 -10 -11 -10 8 0
12 5 22 10 22 6 0 10 -3 10 -7z"/>
<path d="M4840 2991 c0 -11 -3 -28 -7 -38 -3 -10 -3 -15 1 -12 12 11 25 69 15
69 -5 0 -9 -9 -9 -19z"/>
<path d="M4861 2870 c-1 -8 -4 -26 -7 -40 -5 -22 -4 -23 6 -7 6 10 9 28 7 40
-2 12 -5 15 -6 7z"/>
<path d="M2426 2765 c-9 -26 -7 -32 5 -12 6 10 9 21 6 23 -2 3 -7 -2 -11 -11z"/>
<path d="M522 2740 c0 -14 2 -19 5 -12 2 6 2 18 0 25 -3 6 -5 1 -5 -13z"/>
<path d="M2441 2709 c-6 -18 -11 -37 -10 -43 0 -6 7 7 15 28 8 22 12 41 10 43
-2 2 -9 -10 -15 -28z"/>
<path d="M2411 2714 c0 -11 3 -14 6 -6 3 7 2 16 -1 19 -3 4 -6 -2 -5 -13z"/>
<path d="M2395 2670 c-4 -12 -5 -24 -2 -27 3 -2 8 5 12 17 4 12 5 24 2 27 -3
2 -8 -5 -12 -17z"/>
<path d="M4815 2650 c-4 -17 -5 -34 -2 -36 2 -3 7 10 11 27 8 42 0 50 -9 9z"/>
<path d="M1781 2665 c0 -5 8 -37 19 -70 10 -33 19 -51 19 -40 -1 21 -37 127
-38 110z"/>
<path d="M2411 2613 c-1 -6 -4 -20 -7 -30 -5 -17 -5 -17 6 0 6 10 9 23 6 30
-3 9 -5 9 -5 0z"/>
<path d="M4155 2589 c-4 -12 -3 -25 2 -30 5 -5 10 4 11 21 3 35 -4 39 -13 9z"/>
<path d="M4712 2500 c0 -14 2 -19 5 -12 2 6 2 18 0 25 -3 6 -5 1 -5 -13z"/>
<path d="M75 2490 c10 -40 47 -134 58 -147 19 -25 26 -13 13 20 -8 17 -22 50
-32 72 -9 22 -23 49 -31 60 -14 19 -15 19 -8 -5z"/>
<path d="M1946 2477 c3 -10 9 -15 12 -12 3 3 0 11 -7 18 -10 9 -11 8 -5 -6z"/>
<path d="M4740 2445 c0 -14 2 -25 4 -25 2 0 6 11 8 25 3 14 1 25 -3 25 -5 0
-9 -11 -9 -25z"/>
<path d="M226 2431 c-4 -7 -5 -15 -2 -18 9 -9 19 4 14 18 -4 11 -6 11 -12 0z"/>
<path d="M3782 2420 c0 -14 2 -19 5 -12 2 6 2 18 0 25 -3 6 -5 1 -5 -13z"/>
<path d="M1021 2404 c0 -11 3 -14 6 -6 3 7 2 16 -1 19 -3 4 -6 -2 -5 -13z"/>
<path d="M4242 2388 c-5 -7 -6 -22 -2 -33 6 -17 8 -15 12 13 5 36 5 37 -10 20z"/>
<path d="M360 2368 c0 -19 2 -20 10 -8 13 19 13 30 0 30 -5 0 -10 -10 -10 -22z"/>
<path d="M4555 2381 c-3 -5 -2 -12 3 -15 5 -3 9 1 9 9 0 17 -3 19 -12 6z"/>
<path d="M0 2346 c0 -26 4 -36 12 -33 14 4 12 46 -3 62 -5 5 -9 -6 -9 -29z"/>
<path d="M5070 2355 c0 -9 -7 -18 -15 -21 -9 -4 -15 -19 -15 -35 0 -16 -6 -32
-14 -35 -10 -4 -16 -42 -22 -147 -4 -78 -10 -130 -12 -114 -2 15 -8 27 -14 27
-20 0 22 -179 48 -201 21 -17 28 -4 15 28 -15 37 -22 113 -10 113 5 0 9 -7 9
-15 0 -8 5 -15 10 -15 22 0 21 30 -3 80 -16 32 -20 49 -12 46 22 -8 37 21 33
63 -2 22 0 37 4 35 7 -5 9 16 12 159 1 26 -2 47 -6 47 -5 0 -8 -7 -8 -15z
m-21 -265 c0 -10 -3 -8 -9 5 -12 27 -12 43 0 25 5 -8 9 -22 9 -30z"/>
<path d="M170 2345 c0 -8 5 -15 10 -15 6 0 10 7 10 15 0 8 -4 15 -10 15 -5 0
-10 -7 -10 -15z"/>
<path d="M251 2355 c0 -18 28 -61 29 -44 0 8 -7 24 -15 35 -8 10 -14 15 -14 9z"/>
<path d="M4580 2351 c0 -8 -8 -11 -20 -8 -11 3 -18 1 -14 -4 3 -5 11 -9 19 -9
16 0 30 18 21 27 -3 4 -6 1 -6 -6z"/>
<path d="M381 2322 c-14 -26 -14 -42 -1 -42 11 0 25 48 17 56 -3 3 -10 -3 -16
-14z"/>
<path d="M552 2301 c0 -32 2 -41 10 -33 8 8 8 21 1 44 l-10 33 -1 -44z"/>
<path d="M587 2298 c3 -24 11 -52 16 -63 10 -18 11 -18 15 -2 2 9 -2 34 -9 55
-7 20 -12 40 -11 45 1 4 -2 7 -7 7 -5 0 -7 -19 -4 -42z"/>
<path d="M150 2299 c0 -11 4 -18 10 -14 5 3 7 12 3 20 -7 21 -13 19 -13 -6z"/>
<path d="M232 2289 c6 -16 12 -28 15 -26 7 7 -8 57 -18 57 -4 0 -3 -14 3 -31z"/>
<path d="M1892 2315 c0 -5 6 -26 13 -45 7 -19 14 -28 14 -20 0 8 -6 29 -14 45
-7 17 -13 26 -13 20z"/>
<path d="M4550 2315 c0 -8 29 -12 39 -5 9 5 4 8 -13 8 -14 0 -26 -2 -26 -3z"/>
<path d="M4270 2298 c0 -24 33 -97 41 -92 23 14 -2 104 -28 104 -7 0 -13 -5
-13 -12z"/>
<path d="M190 2280 c0 -18 30 -70 40 -70 8 0 -2 48 -15 70 -8 13 -25 13 -25 0z"/>
<path d="M292 2270 c0 -14 2 -19 5 -12 2 6 2 18 0 25 -3 6 -5 1 -5 -13z"/>
<path d="M647 2270 c-3 -11 -2 -33 2 -48 l8 -27 5 27 c3 15 1 25 -4 22 -5 -3
-6 6 -2 20 3 14 4 26 1 26 -2 0 -7 -9 -10 -20z"/>
<path d="M165 2260 c3 -5 8 -10 11 -10 2 0 4 5 4 10 0 6 -5 10 -11 10 -5 0 -7
-4 -4 -10z"/>
<path d="M340 2255 c0 -8 5 -15 10 -15 6 0 10 7 10 15 0 8 -4 15 -10 15 -5 0
-10 -7 -10 -15z"/>
<path d="M262 2230 c0 -14 2 -19 5 -12 2 6 2 18 0 25 -3 6 -5 1 -5 -13z"/>
<path d="M4262 2219 c6 -16 12 -28 14 -26 5 5 -13 57 -20 57 -3 0 0 -14 6 -31z"/>
<path d="M4650 2230 c0 -5 4 -10 9 -10 6 0 13 5 16 10 3 6 -1 10 -9 10 -9 0
-16 -4 -16 -10z"/>
<path d="M1920 2225 c0 -5 5 -17 10 -25 5 -8 10 -10 10 -5 0 6 -5 17 -10 25
-5 8 -10 11 -10 5z"/>
<path d="M3735 2200 c-7 -12 2 -30 16 -30 12 0 12 27 0 35 -5 3 -12 1 -16 -5z"/>
<path d="M237 2193 c-4 -3 -7 -11 -7 -17 0 -6 5 -5 12 2 6 6 9 14 7 17 -3 3
-9 2 -12 -2z"/>
<path d="M4691 2164 c0 -11 3 -14 6 -6 3 7 2 16 -1 19 -3 4 -6 -2 -5 -13z"/>
<path d="M1258 2132 c-26 -58 -29 -87 -12 -121 8 -17 18 -31 21 -31 3 0 4 26
2 58 -1 31 1 69 5 84 13 44 2 50 -16 10z"/>
<path d="M3850 2144 c0 -14 4 -23 9 -20 5 3 7 15 4 26 -7 28 -13 25 -13 -6z"/>
<path d="M4230 2168 c0 -4 13 -36 29 -70 16 -35 42 -92 57 -128 33 -75 33 -75
39 -69 2 3 -2 16 -9 30 -7 14 -25 56 -40 94 -24 64 -76 160 -76 143z"/>
<path d="M290 2151 c0 -5 7 -14 15 -21 16 -14 18 -10 9 14 -6 17 -24 22 -24 7z"/>
<path d="M1307 2150 c-10 -25 -26 -200 -20 -215 8 -24 23 -17 23 10 0 13 5 55
12 92 8 49 8 77 1 98 -8 21 -12 26 -16 15z"/>
<path d="M3728 2134 c6 -33 22 -41 22 -11 0 14 -6 27 -13 30 -10 4 -13 -2 -9
-19z"/>
<path d="M1900 2115 c0 -5 5 -17 10 -25 5 -8 10 -10 10 -5 0 6 -5 17 -10 25
-5 8 -10 11 -10 5z"/>
<path d="M3220 2110 c0 -5 5 -10 10 -10 6 0 10 5 10 10 0 6 -4 10 -10 10 -5 0
-10 -4 -10 -10z"/>
<path d="M327 2084 c-10 -11 -8 -44 2 -44 6 0 13 4 16 10 8 12 -9 43 -18 34z"/>
<path d="M3732 2064 c7 -15 14 -21 16 -15 5 16 -5 41 -17 41 -7 0 -6 -10 1
-26z"/>
<path d="M3882 2064 c-7 -8 -12 -20 -9 -27 2 -7 9 -2 16 11 15 28 11 36 -7 16z"/>
<path d="M2339 2048 c0 -22 -1 -22 -9 -3 -7 16 -9 13 -9 -15 1 -19 3 -29 6
-22 8 19 21 14 26 -10 2 -13 5 -4 6 19 0 23 -3 45 -9 48 -6 3 -10 -4 -11 -17z"/>
<path d="M1516 2020 c-14 -60 -17 -118 -6 -125 6 -3 7 0 4 9 -3 9 -2 16 4 16
6 0 12 -6 15 -12 2 -7 2 12 0 42 -2 40 -1 49 6 35 15 -31 12 5 -3 40 l-12 30
-8 -35z"/>
<path d="M4630 2031 c0 -12 5 -21 10 -21 6 0 10 6 10 14 0 8 -4 18 -10 21 -5
3 -10 -3 -10 -14z"/>
<path d="M2321 1974 c0 -11 3 -14 6 -6 3 7 2 16 -1 19 -3 4 -6 -2 -5 -13z"/>
<path d="M781 1964 c0 -11 3 -14 6 -6 3 7 2 16 -1 19 -3 4 -6 -2 -5 -13z"/>
<path d="M3720 1930 c0 -5 5 -10 10 -10 6 0 10 5 10 10 0 6 -4 10 -10 10 -5 0
-10 -4 -10 -10z"/>
<path d="M797 1917 c-11 -29 -9 -43 4 -30 6 6 9 19 7 29 -3 18 -4 18 -11 1z"/>
<path d="M5042 1900 c0 -14 2 -19 5 -12 2 6 2 18 0 25 -3 6 -5 1 -5 -13z"/>
<path d="M3190 1882 c0 -4 12 -19 27 -33 20 -18 23 -19 13 -4 -24 32 -40 47
-40 37z"/>
<path d="M1521 1860 c0 -8 4 -22 9 -30 12 -18 12 -2 0 25 -6 13 -9 15 -9 5z"/>
<path d="M3572 1830 c0 -14 2 -19 5 -12 2 6 2 18 0 25 -3 6 -5 1 -5 -13z"/>
<path d="M2026 1785 c-3 -9 -6 -26 -5 -38 1 -14 4 -9 9 13 9 37 7 52 -4 25z"/>
<path d="M4952 1724 c-2 -63 1 -82 19 -110 11 -19 24 -34 28 -34 4 0 14 18 21
39 11 36 11 44 -9 81 -24 46 -27 65 -8 54 6 -4 1 5 -12 19 -14 15 -27 27 -30
27 -3 0 -7 -34 -9 -76z"/>
<path d="M3584 1600 c0 -80 2 -112 3 -72 2 39 2 105 0 145 -1 39 -3 7 -3 -73z"/>
<path d="M3987 1713 c-4 -3 -7 -13 -7 -22 1 -13 3 -13 11 2 11 19 8 33 -4 20z"/>
<path d="M1565 1640 c9 -30 13 -35 21 -27 3 3 -2 16 -11 29 l-17 23 7 -25z"/>
<path d="M5107 1563 c-8 -17 -7 -99 3 -113 7 -11 10 4 10 53 0 63 -3 78 -13
60z"/>
<path d="M3620 1409 c0 -5 5 -7 10 -4 6 3 10 8 10 11 0 2 -4 4 -10 4 -5 0 -10
-5 -10 -11z"/>
<path d="M2771 1394 c0 -11 3 -14 6 -6 3 7 2 16 -1 19 -3 4 -6 -2 -5 -13z"/>
<path d="M3522 1390 c0 -14 2 -19 5 -12 2 6 2 18 0 25 -3 6 -5 1 -5 -13z"/>
<path d="M5035 1310 c-3 -5 1 -10 10 -10 9 0 13 5 10 10 -3 6 -8 10 -10 10 -2
0 -7 -4 -10 -10z"/>
<path d="M3291 1294 c0 -11 3 -14 6 -6 3 7 2 16 -1 19 -3 4 -6 -2 -5 -13z"/>
<path d="M3320 1296 c0 -4 7 -14 15 -22 8 -9 15 -11 15 -6 0 5 -7 15 -15 22
-8 7 -15 9 -15 6z"/>
<path d="M3315 1260 c-3 -5 -1 -10 4 -10 6 0 11 5 11 10 0 6 -2 10 -4 10 -3 0
-8 -4 -11 -10z"/>
</g>
</svg>
